<?xml version="1.0" encoding="iso-8859-1"?>
<!-- Generator: Adobe Illustrator 19.0.0, SVG Export Plug-In . SVG Version: 6.00 Build 0)  -->
<svg version="1.1" id="Capa_1" xmlns="http://www.w3.org/2000/svg" xmlns:xlink="http://www.w3.org/1999/xlink" x="0px" y="0px"
	 viewBox="0 0 469.333 469.333" style="enable-background:new 0 0 469.333 469.333;" xml:space="preserve">
<g>
	<g>
		<path d="M426.667,0h-384C19.146,0,0,19.135,0,42.667v384c0,23.531,19.146,42.667,42.667,42.667h384
			c23.521,0,42.667-19.135,42.667-42.667v-384C469.333,19.135,450.188,0,426.667,0z M338.206,308.043
			c4.167,4.165,4.167,10.919,0,15.085l-15.081,15.082c-4.167,4.165-10.919,4.165-15.086,0l-73.374-73.374l-73.374,73.374
			c-4.167,4.165-10.919,4.165-15.086,0l-15.081-15.082c-4.167-4.165-4.167-10.919,0-15.085l73.374-73.375l-73.374-73.374
			c-4.167-4.165-4.167-10.919,0-15.085l15.081-15.082c4.167-4.165,10.919-4.165,15.086,0l73.374,73.374l73.374-73.374
			c4.167-4.165,10.919-4.165,15.086,0l15.081,15.082c4.167,4.165,4.167,10.919,0,15.085l-73.374,73.374L338.206,308.043z"/>
	</g>
</g>
<g>
</g>
<g>
</g>
<g>
</g>
<g>
</g>
<g>
</g>
<g>
</g>
<g>
</g>
<g>
</g>
<g>
</g>
<g>
</g>
<g>
</g>
<g>
</g>
<g>
</g>
<g>
</g>
<g>
</g>
</svg>
